Coordinates
version=1
nRows=14
nColumns=46
inDegrees=yes

Units are S.I. units (second, meters, Newtons, ...)
Angles are in degrees.

endheader
time	pelvis_tilt	pelvis_list	pelvis_rotation	pelvis_tx	pelvis_ty	pelvis_tz	bb_angle	bb_tx	bb_ty	bb_tz	hip_flexion_r	hip_adduction_r	hip_rotation_r	knee_angle_r	knee_angle_r_beta	ankle_angle_r	subtalar_angle_r	mtp_angle_r	crank_angle_r	hip_flexion_l	hip_adduction_l	hip_rotation_l	knee_angle_l	knee_angle_l_beta	ankle_angle_l	subtalar_angle_l	mtp_angle_l	crank_angle_l	lumbar_extension	lumbar_bending	lumbar_rotation	arm_flex_r	arm_add_r	arm_rot_r	elbow_flex_r	pro_sup_r	wrist_flex_r	wrist_dev_r	arm_flex_l	arm_add_l	arm_rot_l	elbow_flex_l	pro_sup_l	wrist_flex_l	wrist_dev_l
      0.00000000	    -11.95651392	     -5.20195904	      4.37048359	      0.12502509	      1.15042738	     -0.25745044	      0.00000000	      0.50000000	      0.00000000	      0.25000000	     79.97897006	     -5.29210130	     -4.05799055	    112.37499738	      1.96131370	      8.30971409	    -11.86744881	      0.00000000	      0.00000000	     37.90352543	     -6.52771403	      1.08076145	     29.27755303	      0.51098970	      8.22280909	      0.21925468	      0.00000000	      0.00000000	    -79.57469456	      5.68819227	    -61.33067713	     89.85889475	     48.03406174	     16.96755871	     60.25612228	     14.34263163	      0.00000000	      0.00000000	     75.91899577	    -46.02460474	    -35.05294575	    132.15591620	     16.70333410	      0.00000000	      0.00000000
      0.00500000	    -11.95778304	     -5.20541760	      4.38672527	      0.12499865	      1.15045927	     -0.25752242	      0.00000000	      0.50000000	      0.00000000	      0.25000000	     79.97013826	     -5.30158008	     -4.05642830	    112.36160263	      1.96107992	      8.28963904	    -11.86139879	      0.00000000	      0.00000000	     37.90315946	     -6.51780823	      1.09973655	     29.27025835	      0.51086238	      8.23053960	      0.25114578	      0.00000000	      0.00000000	    -79.56501908	      5.71997722	    -61.35110153	     89.85883099	     48.13943671	     16.88558296	     60.10525450	     14.97796469	      0.00000000	      0.00000000	     75.88261046	    -46.04325628	    -35.10391960	    132.42266063	     15.31065241	      0.00000000	      0.00000000
      0.01000000	    -11.93368433	     -5.19371601	      4.37438774	      0.12501893	      1.15060325	     -0.25752041	      0.00000000	      0.50000000	      0.00000000	      0.25000000	     79.93131266	     -5.28201462	     -4.03767906	    112.34936451	      1.96086632	      8.27850022	    -11.84910023	      0.00000000	      0.00000000	     37.84340564	     -6.51142594	      1.07950724	     29.21006951	      0.50981189	      8.21900374	      0.21282578	      0.00000000	      0.00000000	    -79.61284921	      5.68391446	    -61.36136089	     89.85927796	     48.17459248	     16.76405074	     60.11074281	     14.98802402	      0.00000000	      0.00000000	     75.97835026	    -46.03774794	    -34.94755948	    132.09225306	     17.00100496	      0.00000000	      0.00000000
      0.01500000	    -11.91439302	     -5.15275126	      4.41701447	      0.12496639	      1.15059736	     -0.25751187	      0.00000000	      0.50000000	      0.00000000	      0.25000000	     79.95851685	     -5.34348569	     -3.99477634	    112.35354104	      1.96093922	      8.13561924	    -11.88872713	      0.00000000	      0.00000000	     37.84290931	     -6.46113806	      1.06301262	     29.24285941	      0.51038418	      8.23042104	      0.26732953	      0.00000000	      0.00000000	    -79.57979961	      5.72372046	    -61.46780775	     89.85878735	     48.28680132	     16.85351036	     60.01040751	     14.93028514	      0.00000000	      0.00000000	     75.88085028	    -46.12974263	    -35.10281448	    132.30496055	     15.50047493	      0.00000000	      0.00000000
      0.02000000	    -11.91382333	     -5.11211100	      4.40097189	      0.12509175	      1.15066687	     -0.25760348	      0.00000000	      0.50000000	      0.00000000	      0.25000000	     79.94499110	     -5.34956606	     -3.94691200	    112.34879393	      1.96085636	      8.14918838	    -11.89108480	      0.00000000	      0.00000000	     37.76919672	     -6.41403539	      1.03912883	     29.13480889	      0.50849834	      8.15796108	      0.14533435	      0.00000000	      0.00000000	    -79.59617375	      5.71451291	    -61.49010661	     89.85885757	     48.28621923	     16.70120184	     59.02137680	     20.41613811	      0.00000000	      0.00000000	     75.91148449	    -46.15205489	    -35.27502837	    130.83607055	     22.85608379	      0.00000000	      0.00000000
      0.02500000	    -11.90406291	     -5.11525448	      4.42314039	      0.12506608	      1.15072876	     -0.25767095	      0.00000000	      0.50000000	      0.00000000	      0.25000000	     79.93387722	     -5.37041346	     -3.95325935	    112.33795452	      1.96066718	      8.08419105	    -11.95663969	      0.00000000	      0.00000000	     37.77483673	     -6.40291693	      1.04741929	     29.15287350	      0.50881363	      8.17872914	      0.18385911	      0.00000000	      0.00000000	    -79.60139091	      5.74203283	    -61.49569757	     89.85863238	     48.29902835	     16.75696116	     60.34106113	     13.88201787	      0.00000000	      0.00000000	     75.86421800	    -46.11072775	    -35.15423842	    131.91497848	     17.74013294	      0.00000000	      0.00000000
      0.03000000	    -11.89267029	     -5.10891903	      4.41696371	      0.12506365	      1.15078747	     -0.25766154	      0.00000000	      0.50000000	      0.00000000	      0.25000000	     79.92069759	     -5.36181789	     -3.95081998	    112.32825933	      1.96049797	      8.05973864	    -11.99607684	      0.00000000	      0.00000000	     37.75480911	     -6.40258220	      1.02217283	     29.14259489	      0.50863423	      8.17859698	      0.19303454	      0.00000000	      0.00000000	    -79.59237399	      5.75220986	    -61.55132651	     89.85860673	     48.38915903	     16.81403874	     59.83023811	     16.04486741	      0.00000000	      0.00000000	     75.81150201	    -46.17198037	    -35.30840628	    131.54813449	     19.50396230	      0.00000000	      0.00000000
      0.03500000	    -11.84478607	     -5.07921618	      4.42554858	      0.12501176	      1.15089702	     -0.25771571	      0.00000000	      0.50000000	      0.00000000	      0.25000000	     79.87396633	     -5.38141839	     -3.91439627	    112.32899810	      1.96051086	      8.09543537	    -11.94975567	      0.00000000	      0.00000000	     37.69384384	     -6.36272733	      1.02217924	     29.12482077	      0.50832402	      8.14119113	      0.12814274	      0.00000000	      0.00000000	    -79.65725024	      5.75718953	    -61.54575531	     89.85853428	     48.37624728	     16.77650889	     59.76568486	     16.96638361	      0.00000000	      0.00000000	     75.91048837	    -46.15584250	    -35.13640274	    131.41963454	     20.09877358	      0.00000000	      0.00000000
      0.04000000	    -11.87658961	     -5.14459946	      4.43806945	      0.12499582	      1.15081274	     -0.25769850	      0.00000000	      0.50000000	      0.00000000	      0.25000000	     79.90003679	     -5.35410671	     -3.98505675	    112.31194830	      1.96021329	      8.01793571	    -12.06284694	      0.00000000	      0.00000000	     37.76879259	     -6.41340505	      1.08652742	     29.18369858	      0.50935163	      8.20481112	      0.16576736	      0.00000000	      0.00000000	    -79.57557987	      5.81453984	    -61.59837866	     89.85839074	     48.47439329	     16.88923335	     59.42510041	     17.97851500	      0.00000000	      0.00000000	     75.67539700	    -46.25158934	    -35.56274828	    131.31104097	     21.06379785	      0.00000000	      0.00000000
      0.04500000	    -11.88132688	     -5.14337517	      4.46282039	      0.12496035	      1.15074372	     -0.25772197	      0.00000000	      0.50000000	      0.00000000	      0.25000000	     79.92452633	     -5.37804771	     -3.99513205	    112.33056552	      1.96053822	      7.94640415	    -12.19099205	      0.00000000	      0.00000000	     37.78196878	     -6.39483414	      1.09054174	     29.17749410	      0.50924334	      8.19448022	      0.13661556	      0.00000000	      0.00000000	    -79.56958762	      5.82485768	    -61.59727567	     89.85935531	     48.25761496	     17.11027040	     58.55959611	     22.60371828	      0.00000000	      0.00000000	     75.65304061	    -46.29877438	    -35.69547098	    130.28362124	     26.38368869	      0.00000000	      0.00000000
      0.05000000	    -11.83757959	     -5.07363144	      4.44200266	      0.12494373	      1.15091099	     -0.25768116	      0.00000000	      0.50000000	      0.00000000	      0.25000000	     79.88640903	     -5.37577428	     -3.90787745	    112.32919031	      1.96051422	      7.98840129	    -12.00913566	      0.00000000	      0.00000000	     37.68773575	     -6.33871873	      1.04932589	     29.10994584	      0.50806440	      8.12764549	      0.08024652	      0.00000000	      0.00000000	    -79.65695362	      5.75908127	    -61.56219671	     89.85884215	     48.21341115	     17.05486823	     60.44682761	     13.68363090	      0.00000000	      0.00000000	     75.86124371	    -46.13013841	    -35.02319664	    131.67252709	     19.14615358	      0.00000000	      0.00000000
      0.05500000	    -11.81480193	     -5.06768461	      4.46069945	      0.12490134	      1.15092348	     -0.25773027	      0.00000000	      0.50000000	      0.00000000	      0.25000000	     79.86973694	     -5.39761950	     -3.90347840	    112.33771103	      1.96066293	      7.98971582	    -12.03855301	      0.00000000	      0.00000000	     37.66838657	     -6.31178085	      1.08739440	     29.11141430	      0.50809003	      8.10378586	      0.00070899	      0.00000000	      0.00000000	    -79.68050116	      5.79019741	    -61.57954892	     89.85862882	     48.28314976	     16.94903113	     60.45264472	     13.86522214	      0.00000000	      0.00000000	     75.84616241	    -46.11753751	    -34.98361285	    132.06283579	     17.39650250	      0.00000000	      0.00000000
      0.06000000	    -11.81666420	     -5.10376973	      4.48745487	      0.12483170	      1.15079045	     -0.25770628	      0.00000000	      0.50000000	      0.00000000	      0.25000000	     79.89204853	     -5.39784139	     -3.95366225	    112.34766593	      1.96083668	      7.85979659	    -12.21483829	      0.00000000	      0.00000000	     37.73156517	     -6.34411240	      1.08343895	     29.19995499	      0.50963536	      8.16685272	      0.10423834	      0.00000000	      0.00000000	    -79.63969799	      5.83798461	    -61.61597794	     89.85891035	     48.27956997	     17.15995101	     59.13984481	     19.99706527	      0.00000000	      0.00000000	     75.71729807	    -46.22825608	    -35.31860645	    130.91274053	     23.29855987	      0.00000000	      0.00000000
      0.06500000	    -11.80580705	     -5.07435257	      4.49543177	      0.12475103	      1.15076002	     -0.25774629	      0.00000000	      0.50000000	      0.00000000	      0.25000000	     79.90291139	     -5.42149603	     -3.90665314	    112.37131394	      1.96124941	      7.91796225	    -12.08084961	      0.00000000	      0.00000000	     37.72924991	     -6.29577732	      1.10997693	     29.21299915	      0.50986302	      8.12894991	     -0.07966791	      0.00000000	      0.00000000	    -79.69600755	      5.83118884	    -61.62584185	     89.85852056	     48.25430860	     17.03196905	     60.59170178	     13.59280946	      0.00000000	      0.00000000	     75.85314910	    -46.19985809	    -34.93864007	    131.79171048	     18.97304285	      0.00000000	      0.00000000
